<?xml version="1.0" standalone="no"?>
<!DOCTYPE svg PUBLIC "-//W3C//DTD SVG 20010904//EN"
 "http://www.w3.org/TR/2001/REC-SVG-20010904/DTD/svg10.dtd">
<svg version="1.0" xmlns="http://www.w3.org/2000/svg"
 width="667.000000pt" height="146.000000pt" viewBox="0 0 667.000000 146.000000"
 preserveAspectRatio="xMidYMid meet">

<g transform="translate(0.000000,146.000000) scale(0.100000,-0.100000)"
fill="#000000" stroke="none">
<path d="M1315 1225 c-17 -16 -25 -35 -25 -58 l0 -35 -96 -22 c-234 -54 -447
-226 -540 -436 -33 -74 -62 -191 -70 -279 l-7 -75 584 0 c321 0 590 4 598 9 8
5 11 16 8 25 -6 14 -63 16 -572 16 -562 0 -565 0 -565 20 0 43 32 173 58 238
120 294 456 494 759 452 194 -27 343 -105 472 -247 97 -107 174 -281 183 -413
l3 -45 -49 -3 c-55 -4 -171 28 -226 61 -81 49 -173 153 -206 234 l-16 36 74
-6 c40 -3 94 -13 120 -22 61 -21 136 -89 171 -154 l28 -51 -24 0 c-14 0 -51
14 -83 31 -47 24 -54 26 -39 10 26 -29 133 -81 167 -81 36 0 37 25 4 95 -56
119 -165 197 -303 216 -50 7 -94 8 -123 2 -41 -8 -45 -11 -43 -38 6 -81 129
-239 237 -304 71 -42 162 -68 273 -77 l86 -7 -5 89 c-11 192 -98 377 -239 509
-123 116 -229 167 -431 210 -24 5 -28 10 -28 41 0 45 -37 84 -80 84 -19 0 -40
-9 -55 -25z m83 -52 c4 -30 -31 -49 -52 -27 -19 19 -20 26 -4 42 19 19 53 10
56 -15z"/>
<path d="M1080 977 c-46 -22 -63 -52 -37 -63 8 -3 40 6 71 20 43 19 57 30 54
43 -5 26 -36 26 -88 0z"/>
<path d="M3780 735 l0 -195 45 0 44 0 3 55 3 56 43 -56 c43 -55 43 -55 99 -55
l55 0 -28 38 c-15 20 -38 50 -51 66 l-24 29 47 49 48 48 -55 0 c-49 0 -60 -4
-97 -36 l-42 -36 0 116 0 116 -45 0 -45 0 0 -195z"/>
<path d="M875 827 c-89 -91 -150 -199 -180 -316 -15 -58 -15 -65 -1 -80 14
-13 18 -13 29 -1 8 8 19 38 25 67 25 116 115 262 207 337 47 39 56 60 29 70
-25 10 -25 10 -109 -77z"/>
<path d="M3088 889 c-22 -12 -23 -52 -2 -73 31 -32 84 -11 84 32 0 47 -39 66
-82 41z"/>
<path d="M3658 889 c-22 -12 -23 -52 -2 -73 31 -32 84 -11 84 32 0 47 -39 66
-82 41z"/>
<path d="M4617 885 c-44 -15 -83 -48 -103 -87 -18 -35 -18 -131 1 -167 42 -83
161 -124 250 -87 34 14 35 17 35 69 l0 54 -40 -19 c-74 -37 -142 -4 -142 67 0
71 68 104 142 67 l40 -19 0 54 c0 52 -1 55 -35 69 -43 17 -98 17 -148 -1z"/>
<path d="M5808 889 c-22 -12 -23 -52 -2 -73 31 -32 84 -11 84 32 0 47 -39 66
-82 41z"/>
<path d="M2311 763 c0 -161 10 -191 69 -220 78 -40 177 -24 217 36 21 31 23
45 23 172 l0 139 -55 0 -55 0 0 -123 c0 -130 -5 -147 -47 -147 -35 0 -43 29
-43 154 l0 116 -55 0 -55 0 1 -127z"/>
<path d="M3320 840 l0 -50 50 0 50 0 0 -125 0 -125 55 0 55 0 0 125 0 125 50
0 50 0 0 50 0 50 -155 0 -155 0 0 -50z"/>
<path d="M14 865 c-11 -27 10 -36 77 -33 56 3 64 5 64 23 0 18 -8 20 -68 23
-54 2 -68 0 -73 -13z"/>
<path d="M220 865 c-26 -31 3 -35 236 -33 221 3 229 4 229 23 0 19 -8 20 -226
23 -195 2 -228 0 -239 -13z"/>
<path d="M5140 810 c0 -36 -2 -40 -25 -40 -22 0 -25 -4 -25 -40 0 -36 3 -40
25 -40 24 0 25 -2 25 -75 l0 -75 45 0 45 0 0 75 c0 68 2 75 20 75 17 0 20 7
20 40 0 33 -3 40 -20 40 -17 0 -20 7 -20 40 l0 40 -45 0 -45 0 0 -40z"/>
<path d="M4154 771 c-66 -17 -66 -17 -50 -50 15 -28 17 -29 56 -19 30 8 44 7
55 -2 26 -22 17 -27 -46 -26 -52 1 -64 -2 -80 -23 -43 -53 -9 -111 65 -111 27
0 51 6 60 16 15 14 16 14 16 0 0 -12 11 -16 45 -16 l46 0 -3 96 c-3 90 -5 98
-28 115 -30 22 -93 31 -136 20z m71 -150 c7 -12 -32 -34 -45 -26 -6 3 -10 13
-10 21 0 16 45 20 55 5z"/>
<path d="M4914 771 c-66 -17 -66 -17 -50 -50 15 -28 17 -29 56 -19 30 8 44 7
55 -2 26 -22 17 -27 -46 -26 -52 1 -64 -2 -80 -23 -43 -53 -9 -111 65 -111 27
0 51 6 60 16 15 14 16 14 16 0 0 -12 11 -16 45 -16 l46 0 -3 96 c-3 90 -5 98
-28 115 -30 22 -93 31 -136 20z m71 -150 c7 -12 -32 -34 -45 -26 -6 3 -10 13
-10 21 0 16 45 20 55 5z"/>
<path d="M2670 655 l0 -115 45 0 45 0 0 85 c0 78 2 85 20 85 18 0 20 -7 20
-85 l0 -85 50 0 50 0 0 85 c0 78 2 85 20 85 18 0 20 -7 20 -85 l0 -85 50 0 50
0 0 88 c0 113 -11 136 -69 140 -29 2 -49 -2 -61 -13 -15 -14 -18 -14 -30 0
-14 17 -72 20 -101 5 -13 -7 -19 -7 -19 0 0 5 -20 10 -45 10 l-45 0 0 -115z"/>
<path d="M3080 655 l0 -115 45 0 45 0 0 115 0 115 -45 0 -45 0 0 -115z"/>
<path d="M3650 655 l0 -115 45 0 45 0 0 115 0 115 -45 0 -45 0 0 -115z"/>
<path d="M5335 758 c-36 -19 -55 -52 -55 -95 0 -86 41 -123 135 -123 60 0 108
19 124 49 9 16 6 20 -25 25 -20 4 -49 2 -68 -5 -38 -14 -66 -7 -66 16 0 12 15
15 86 15 l86 0 -6 38 c-4 22 -18 48 -37 65 -26 23 -37 27 -92 27 -34 0 -71 -6
-82 -12z m89 -44 c28 -11 18 -34 -14 -34 -32 0 -37 9 -18 28 14 14 12 14 32 6z"/>
<path d="M5590 655 l0 -115 45 0 45 0 0 59 c0 65 16 93 49 84 16 -4 23 3 35
32 9 20 13 41 10 46 -7 12 -51 11 -75 -1 -13 -7 -19 -7 -19 0 0 5 -20 10 -45
10 l-45 0 0 -115z"/>
<path d="M5800 655 l0 -115 45 0 45 0 0 115 0 115 -45 0 -45 0 0 -115z"/>
<path d="M5930 655 l0 -115 45 0 44 0 3 82 c3 72 6 83 22 86 28 6 36 -15 36
-95 l0 -73 50 0 50 0 0 79 c0 80 -11 129 -33 143 -22 14 -90 8 -109 -9 -17
-15 -18 -15 -18 0 0 13 -10 17 -45 17 l-45 0 0 -115z"/>
<path d="M6239 741 c-25 -25 -29 -37 -29 -81 0 -44 4 -56 29 -81 23 -23 38
-29 72 -29 25 0 50 7 61 17 17 15 18 15 18 -15 0 -17 -7 -38 -16 -46 -20 -20
-53 -21 -60 -1 -4 11 -21 15 -55 15 -27 0 -49 -3 -49 -7 0 -21 43 -75 68 -84
15 -6 54 -9 86 -7 51 4 63 9 87 36 29 32 29 33 29 172 l0 140 -45 0 c-35 0
-45 -4 -45 -17 0 -15 -1 -15 -18 0 -11 10 -36 17 -61 17 -34 0 -49 -6 -72 -29z
m141 -56 c26 -32 -13 -81 -47 -59 -35 22 -23 74 17 74 10 0 23 -7 30 -15z"/>
<path d="M124 705 c-13 -32 7 -35 236 -35 199 0 229 2 234 16 3 9 4 20 0 25
-3 5 -108 9 -235 9 -192 0 -231 -2 -235 -15z"/>
<path d="M6542 624 c-41 -28 -19 -94 32 -94 26 0 56 29 56 53 0 20 -34 57 -53
57 -7 0 -23 -7 -35 -16z"/>
<path d="M215 550 c-13 -22 9 -30 81 -30 67 0 74 2 74 20 0 18 -7 20 -74 20
-41 0 -78 -4 -81 -10z"/>
<path d="M440 540 c0 -18 7 -20 55 -20 48 0 55 2 55 20 0 18 -7 20 -55 20 -48
0 -55 -2 -55 -20z"/>
<path d="M331 396 c-24 -28 -2 -36 100 -36 98 0 100 0 97 23 -3 21 -8 22 -94
25 -71 2 -94 -1 -103 -12z"/>
<path d="M513 253 c-18 -7 -16 -40 3 -47 25 -9 1647 -7 1662 3 8 5 12 17 10
27 -3 18 -30 19 -833 21 -457 1 -836 -1 -842 -4z"/>
</g>
</svg>
