<?xml version="1.0" encoding="UTF-8"?>
<!DOCTYPE svg PUBLIC "-//W3C//DTD SVG 1.1//EN" "http://www.w3.org/Graphics/SVG/1.1/DTD/svg11.dtd">
<svg xmlns="http://www.w3.org/2000/svg" version="1.1" width="920px" height="126px" style="shape-rendering:geometricPrecision; text-rendering:geometricPrecision; image-rendering:optimizeQuality; fill-rule:evenodd; clip-rule:evenodd" xmlns:xlink="http://www.w3.org/1999/xlink">
<g><path style="opacity:0.903" fill="#f15c03" d="M 159.5,-0.5 C 161.5,-0.5 163.5,-0.5 165.5,-0.5C 171.561,2.28925 173.895,6.95592 172.5,13.5C 219.374,21.5411 247.207,48.8744 256,95.5C 256.499,100.823 256.666,106.156 256.5,111.5C 221.899,114.339 197.732,100.006 184,68.5C 183.333,66.1667 183.333,63.8333 184,61.5C 209.68,55.3444 229.013,63.6777 242,86.5C 247.833,99.3333 244.333,102.833 231.5,97C 224.831,93.9974 218.998,89.8307 214,84.5C 213.312,83.6683 213.479,83.0016 214.5,82.5C 239.475,97.7991 241.808,94.9657 221.5,74C 212.553,68.5439 202.887,66.5439 192.5,68C 203.449,91.9762 222.115,104.143 248.5,104.5C 244.406,60.9002 221.073,33.7335 178.5,23C 129.299,17.679 96.1321,38.179 79,84.5C 77.3214,91.0858 76.1547,97.7524 75.5,104.5C 120.168,104.333 164.835,104.5 209.5,105C 210.833,107 210.833,109 209.5,111C 162.168,111.5 114.835,111.667 67.5,111.5C 67.9359,72.4353 84.9359,43.2686 118.5,24C 128.899,18.6998 139.899,15.5331 151.5,14.5C 150.285,7.25621 152.951,2.25621 159.5,-0.5 Z M 161.5,7.5 C 166.197,8.87429 166.531,10.8743 162.5,13.5C 159.142,11.8085 158.809,9.80846 161.5,7.5 Z"/></g>
<g><path style="opacity:0.85" fill="#f15c03" d="M 132.5,29.5 C 138.331,28.5126 140.498,30.846 139,36.5C 134.35,38.4958 129.684,40.4958 125,42.5C 121.135,41.4381 119.969,39.1047 121.5,35.5C 125.1,33.2031 128.767,31.2031 132.5,29.5 Z"/></g>
<g><path style="opacity:0.945" fill="#000233" d="M 504.5,32.5 C 508.833,32.5 513.167,32.5 517.5,32.5C 517.334,42.8387 517.5,53.172 518,63.5C 521.167,60.3333 524.333,57.1667 527.5,54C 532.864,53.1705 538.198,53.3372 543.5,54.5C 539.194,58.1396 535.194,62.1396 531.5,66.5C 535.597,72.7662 540.263,78.5995 545.5,84C 539.833,84.6667 534.167,84.6667 528.5,84C 525.121,79.4095 521.621,74.9095 518,70.5C 517.501,75.1548 517.334,79.8215 517.5,84.5C 513.167,84.5 508.833,84.5 504.5,84.5C 504.5,67.1667 504.5,49.8333 504.5,32.5 Z"/></g>
<g><path style="opacity:0.88" fill="#000233" d="M 406.5,36.5 C 415.316,34.4939 419.15,37.8273 418,46.5C 413.333,50.5 408.667,50.5 404,46.5C 402.861,42.5789 403.695,39.2456 406.5,36.5 Z"/></g>
<g><path style="opacity:0.88" fill="#000233" d="M 486.5,36.5 C 495.316,34.4939 499.15,37.8273 498,46.5C 493.333,50.5 488.667,50.5 484,46.5C 482.861,42.5789 483.695,39.2456 486.5,36.5 Z"/></g>
<g><path style="opacity:0.925" fill="#000233" d="M 624.5,36.5 C 629.844,36.334 635.177,36.5006 640.5,37C 642.746,38.0395 644.913,39.2062 647,40.5C 647.667,45.8333 647.667,51.1667 647,56.5C 641.378,51.1359 634.878,49.6359 627.5,52C 622.78,55.2985 621.28,59.7985 623,65.5C 626.732,71.0461 631.899,72.8794 638.5,71C 641.759,69.7894 644.592,67.9561 647,65.5C 651.916,79.5284 647.083,86.5284 632.5,86.5C 610.177,84.3382 601.677,72.3382 607,50.5C 610.67,42.9839 616.503,38.3173 624.5,36.5 Z"/></g>
<g><path style="opacity:0.88" fill="#000233" d="M 789.5,36.5 C 798.316,34.4939 802.15,37.8273 801,46.5C 796.333,50.5 791.667,50.5 787,46.5C 785.861,42.5789 786.695,39.2456 789.5,36.5 Z"/></g>
<g><path style="opacity:0.941" fill="#000233" d="M 299.5,37.5 C 304.5,37.5 309.5,37.5 314.5,37.5C 314.333,48.1719 314.5,58.8385 315,69.5C 317.549,73.9255 320.882,74.5921 325,71.5C 325.5,60.1716 325.667,48.8382 325.5,37.5C 330.833,37.5 336.167,37.5 341.5,37.5C 341.925,50.8935 341.425,64.2269 340,77.5C 335.531,84.652 329.031,87.9854 320.5,87.5C 314.725,87.5564 309.392,86.0564 304.5,83C 302.959,81.4207 301.792,79.5873 301,77.5C 299.556,64.2404 299.056,50.9071 299.5,37.5 Z"/></g>
<g><path style="opacity:0.954" fill="#000233" d="M 440.5,37.5 C 454.5,37.5 468.5,37.5 482.5,37.5C 482.5,42.1667 482.5,46.8333 482.5,51.5C 477.833,51.5 473.167,51.5 468.5,51.5C 468.5,62.5 468.5,73.5 468.5,84.5C 463.5,84.5 458.5,84.5 453.5,84.5C 453.5,73.5 453.5,62.5 453.5,51.5C 449.167,51.5 444.833,51.5 440.5,51.5C 440.5,46.8333 440.5,42.1667 440.5,37.5 Z"/></g>
<g><path style="opacity:0.874" fill="#f15c03" d="M 112.5,40.5 C 117.501,39.6714 119.668,41.6714 119,46.5C 101.683,59.964 90.8495,77.464 86.5,99C 82.8194,100.314 80.4861,99.1471 79.5,95.5C 83.6133,72.9249 94.6133,54.5916 112.5,40.5 Z"/></g>
<g><path style="opacity:0.939" fill="#000233" d="M 694.5,42.5 C 698.833,42.5 703.167,42.5 707.5,42.5C 707.5,46.1667 707.5,49.8333 707.5,53.5C 709.167,53.5 710.833,53.5 712.5,53.5C 712.5,57.1667 712.5,60.8333 712.5,64.5C 710.833,64.5 709.167,64.5 707.5,64.5C 707.5,71.1667 707.5,77.8333 707.5,84.5C 703.167,84.5 698.833,84.5 694.5,84.5C 694.5,77.8333 694.5,71.1667 694.5,64.5C 692.5,64.5 690.5,64.5 688.5,64.5C 688.5,60.8333 688.5,57.1667 688.5,53.5C 690.5,53.5 692.5,53.5 694.5,53.5C 694.5,49.8333 694.5,46.1667 694.5,42.5 Z"/></g>
<g><path style="opacity:0.84" fill="#f15c03" d="M -0.5,48.5 C -0.5,47.8333 -0.5,47.1667 -0.5,46.5C 0.309426,45.5313 1.30943,44.6979 2.5,44C 7.16667,43.3333 11.8333,43.3333 16.5,44C 19.5534,45.5808 20.22,47.9141 18.5,51C 12.8333,51.6667 7.16667,51.6667 1.5,51C 0.934056,50.0053 0.267389,49.172 -0.5,48.5 Z"/></g>
<g><path style="opacity:0.869" fill="#f15c03" d="M 26.5,43.5 C 44.5031,43.3334 62.5031,43.5001 80.5,44C 82.6483,46.0749 82.9817,48.4082 81.5,51C 62.8333,51.6667 44.1667,51.6667 25.5,51C 24.046,48.2163 24.3794,45.7163 26.5,43.5 Z"/></g>
<g><path style="opacity:0.946" fill="#000233" d="M 367.5,52.5 C 372.039,51.9569 375.873,53.2902 379,56.5C 384.812,51.7133 390.812,51.38 397,55.5C 398.448,65.0607 398.948,74.7274 398.5,84.5C 394.167,84.5 389.833,84.5 385.5,84.5C 385.666,77.825 385.5,71.1583 385,64.5C 384.492,62.0958 383.325,61.4291 381.5,62.5C 380.503,69.8032 380.169,77.1365 380.5,84.5C 375.833,84.5 371.167,84.5 366.5,84.5C 366.666,77.4921 366.5,70.4921 366,63.5C 364.667,60.8333 363.333,60.8333 362,63.5C 361.5,70.4921 361.334,77.4921 361.5,84.5C 357.167,84.5 352.833,84.5 348.5,84.5C 348.5,74.1667 348.5,63.8333 348.5,53.5C 352.833,53.5 357.167,53.5 361.5,53.5C 361.351,54.552 361.517,55.552 362,56.5C 363.5,54.5313 365.333,53.198 367.5,52.5 Z"/></g>
<g><path style="opacity:0.922" fill="#000233" d="M 558.5,52.5 C 564.711,52.0161 570.711,52.8494 576.5,55C 577.333,55.8333 578.167,56.6667 579,57.5C 580.443,66.3921 580.943,75.3921 580.5,84.5C 575.678,85.0653 571.178,84.3987 567,82.5C 560.41,86.7299 554.076,86.3966 548,81.5C 544.198,71.1141 547.865,65.7808 559,65.5C 561.893,66.3899 564.726,66.3899 567.5,65.5C 566.588,63.2569 564.922,62.2569 562.5,62.5C 559.159,63.0029 555.992,64.0029 553,65.5C 551.355,62.3785 549.855,59.2118 548.5,56C 551.98,54.8974 555.313,53.7308 558.5,52.5 Z M 562.5,72.5 C 568.776,73.1197 568.942,74.7864 563,77.5C 559.914,75.9981 559.748,74.3315 562.5,72.5 Z"/></g>
<g><path style="opacity:0.922" fill="#000233" d="M 663.5,52.5 C 669.711,52.0161 675.711,52.8494 681.5,55C 682.333,55.8333 683.167,56.6667 684,57.5C 685.443,66.3921 685.943,75.3921 685.5,84.5C 680.678,85.0653 676.178,84.3987 672,82.5C 665.41,86.7299 659.076,86.3966 653,81.5C 649.198,71.1141 652.865,65.7808 664,65.5C 666.893,66.3899 669.726,66.3899 672.5,65.5C 671.588,63.2569 669.922,62.2569 667.5,62.5C 664.159,63.0029 660.992,64.0029 658,65.5C 656.355,62.3785 654.855,59.2118 653.5,56C 656.98,54.8974 660.313,53.7308 663.5,52.5 Z M 667.5,72.5 C 673.776,73.1197 673.942,74.7864 668,77.5C 664.914,75.9981 664.748,74.3315 667.5,72.5 Z"/></g>
<g><path style="opacity:0.91" fill="#000233" d="M 730.5,52.5 C 745.21,51.2146 752.544,57.8813 752.5,72.5C 744.826,72.3336 737.159,72.5003 729.5,73C 730.817,74.6591 732.483,75.8257 734.5,76.5C 740.238,72.8774 746.238,72.5441 752.5,75.5C 750.11,80.7253 746.11,83.8919 740.5,85C 720.584,88.0132 712.75,79.8465 717,60.5C 720.581,56.132 725.081,53.4653 730.5,52.5 Z M 731.5,61.5 C 734.278,61.0217 736.278,62.0217 737.5,64.5C 734.833,65.8333 732.167,65.8333 729.5,64.5C 730.193,63.4822 730.859,62.4822 731.5,61.5 Z"/></g>
<g><path style="opacity:0.943" fill="#000233" d="M 775.5,52.5 C 779.07,51.8929 781.737,53.0596 783.5,56C 782.238,60.1262 780.405,63.9595 778,67.5C 775.667,64.8333 773.333,64.8333 771,67.5C 769.649,73.0716 769.149,78.7383 769.5,84.5C 765.167,84.5 760.833,84.5 756.5,84.5C 756.5,74.1667 756.5,63.8333 756.5,53.5C 760.833,53.5 765.167,53.5 769.5,53.5C 769.351,54.552 769.517,55.552 770,56.5C 771.5,54.5313 773.333,53.198 775.5,52.5 Z"/></g>
<g><path style="opacity:0.941" fill="#000233" d="M 826.5,52.5 C 832.448,51.5282 836.948,53.5282 840,58.5C 840.5,67.1603 840.666,75.8269 840.5,84.5C 835.833,84.5 831.167,84.5 826.5,84.5C 826.666,77.4921 826.5,70.4921 826,63.5C 824.333,60.8333 822.667,60.8333 821,63.5C 820.5,70.4921 820.334,77.4921 820.5,84.5C 815.833,84.5 811.167,84.5 806.5,84.5C 806.5,74.1667 806.5,63.8333 806.5,53.5C 811.648,52.9264 816.482,53.593 821,55.5C 822.876,54.3913 824.709,53.3913 826.5,52.5 Z"/></g>
<g><path style="opacity:0.935" fill="#000233" d="M 856.5,52.5 C 861.242,52.1364 865.408,53.4698 869,56.5C 869.483,55.552 869.649,54.552 869.5,53.5C 873.833,53.5 878.167,53.5 882.5,53.5C 882.944,66.9071 882.444,80.2404 881,93.5C 879.833,96 878,97.8333 875.5,99C 865.294,103.248 856.127,101.748 848,94.5C 847.265,92.1287 846.432,89.7954 845.5,87.5C 850.167,86.1667 854.833,86.1667 859.5,87.5C 862.577,91.4615 865.744,91.4615 869,87.5C 869.667,85.1667 869.667,82.8333 869,80.5C 860.818,86.3604 853.484,85.3604 847,77.5C 842.467,65.9 845.633,57.5667 856.5,52.5 Z M 862.5,63.5 C 869.048,63.2072 871.048,66.0405 868.5,72C 862.744,74.5693 859.911,72.736 860,66.5C 861.045,65.6266 861.878,64.6266 862.5,63.5 Z"/></g>
<g><path style="opacity:0.951" fill="#000233" d="M 404.5,53.5 C 408.833,53.5 413.167,53.5 417.5,53.5C 417.5,63.8333 417.5,74.1667 417.5,84.5C 413.167,84.5 408.833,84.5 404.5,84.5C 404.5,74.1667 404.5,63.8333 404.5,53.5 Z"/></g>
<g><path style="opacity:0.951" fill="#000233" d="M 484.5,53.5 C 488.833,53.5 493.167,53.5 497.5,53.5C 497.5,63.8333 497.5,74.1667 497.5,84.5C 493.167,84.5 488.833,84.5 484.5,84.5C 484.5,74.1667 484.5,63.8333 484.5,53.5 Z"/></g>
<g><path style="opacity:0.951" fill="#000233" d="M 787.5,53.5 C 791.833,53.5 796.167,53.5 800.5,53.5C 800.5,63.8333 800.5,74.1667 800.5,84.5C 796.167,84.5 791.833,84.5 787.5,84.5C 787.5,74.1667 787.5,63.8333 787.5,53.5 Z"/></g>
<g><path style="opacity:0.864" fill="#f15c03" d="M 14.5,62.5 C 32.8364,62.3334 51.1697,62.5001 69.5,63C 72.1667,65.3333 72.1667,67.6667 69.5,70C 51.1667,70.6667 32.8333,70.6667 14.5,70C 11.9142,67.506 11.9142,65.006 14.5,62.5 Z"/></g>
<g><path style="opacity:0.894" fill="#f15c03" d="M 894.5,70.5 C 902.696,70.529 905.863,74.529 904,82.5C 903.5,84.3333 902.333,85.5 900.5,86C 891.834,87.6644 888,84.1644 889,75.5C 890.107,72.887 891.94,71.2203 894.5,70.5 Z"/></g>
<g><path style="opacity:0.851" fill="#f15c03" d="M 25.5,81.5 C 31.5092,81.3338 37.5092,81.5005 43.5,82C 45.0586,84.6417 44.7253,86.975 42.5,89C 37.1667,89.6667 31.8333,89.6667 26.5,89C 24.1683,86.8164 23.835,84.3164 25.5,81.5 Z"/></g>
<g><path style="opacity:0.835" fill="#f15c03" d="M 51.5,81.5 C 56.2137,81.1734 60.8804,81.5067 65.5,82.5C 67.2177,85.4728 66.5511,87.6395 63.5,89C 59.0998,89.9777 54.9331,89.4777 51,87.5C 50.3224,85.4024 50.4891,83.4024 51.5,81.5 Z"/></g>
<g><path style="opacity:0.862" fill="#f15c03" d="M 40.5,99.5 C 47.175,99.3337 53.8417,99.5004 60.5,100C 63.5534,101.581 64.22,103.914 62.5,107C 54.5,107.667 46.5,107.667 38.5,107C 37.8333,106 37.1667,105 36.5,104C 37.3366,102.989 37.67,101.822 37.5,100.5C 38.791,100.737 39.791,100.404 40.5,99.5 Z"/></g>
<g><path style="opacity:0.993" fill="#f15c03" d="M 260.5,125.5 C 193.167,125.5 125.833,125.5 58.5,125.5C 57.3775,123.482 57.3775,121.482 58.5,119.5C 125.831,118.333 193.164,118.167 260.5,119C 261.768,121.163 261.768,123.33 260.5,125.5 Z"/></g>
</svg>
